<svg width="900" height="1600" viewBox="0 0 900 1600" fill="none" xmlns="http://www.w3.org/2000/svg">
  <defs>
    <linearGradient id="bg" x1="450" y1="0" x2="450" y2="1600" gradientUnits="userSpaceOnUse">
      <stop stop-color="#020403"/>
      <stop offset="1" stop-color="#040706"/>
    </linearGradient>
    <linearGradient id="blade" x1="433" y1="562" x2="518" y2="1448" gradientUnits="userSpaceOnUse">
      <stop stop-color="#103122"/>
      <stop offset="0.45" stop-color="#35E389"/>
      <stop offset="1" stop-color="#D5FFE7"/>
    </linearGradient>
    <linearGradient id="spine" x1="455" y1="560" x2="502" y2="1440" gradientUnits="userSpaceOnUse">
      <stop stop-color="#CCFFE1" stop-opacity="0"/>
      <stop offset="0.18" stop-color="#CCFFE1"/>
      <stop offset="0.84" stop-color="#58F3A2"/>
      <stop offset="1" stop-color="#ECFFF3"/>
    </linearGradient>
    <radialGradient id="floor" cx="0" cy="0" r="1" gradientUnits="userSpaceOnUse" gradientTransform="translate(452 1424) rotate(90) scale(160 260)">
      <stop stop-color="#58F3A2" stop-opacity="0.42"/>
      <stop offset="1" stop-color="#58F3A2" stop-opacity="0"/>
    </radialGradient>
    <filter id="glow" x="250" y="450" width="400" height="1100" filterUnits="userSpaceOnUse" color-interpolation-filters="sRGB">
      <feGaussianBlur stdDeviation="22"/>
    </filter>
    <filter id="soft" x="-20%" y="-20%" width="140%" height="140%" color-interpolation-filters="sRGB">
      <feGaussianBlur stdDeviation="8"/>
    </filter>
  </defs>
  <rect width="900" height="1600" fill="url(#bg)"/>
  <g opacity="0.18" stroke="#12291E">
    <path d="M110 0V1600"/>
    <path d="M210 0V1600"/>
    <path d="M690 0V1600"/>
    <path d="M792 0V1600"/>
    <path d="M0 340H900"/>
    <path d="M0 1128H900"/>
  </g>
  <g opacity="0.5">
    <rect x="122" y="162" width="7" height="298" rx="3.5" fill="#2BE77C"/>
    <rect x="784" y="208" width="10" height="228" rx="5" fill="#36D87B"/>
  </g>
  <g opacity="0.2" filter="url(#soft)">
    <ellipse cx="346" cy="732" rx="128" ry="216" fill="#33F38C"/>
    <ellipse cx="566" cy="1110" rx="146" ry="220" fill="#2EEA81"/>
  </g>
  <g opacity="0.26">
    <circle cx="284" cy="666" r="2" fill="#C9FFE0"/>
    <circle cx="608" cy="982" r="2" fill="#CCFFE3"/>
    <circle cx="638" cy="1188" r="2.2" fill="#E5FFF0"/>
    <circle cx="334" cy="1058" r="1.8" fill="#6DFFB0"/>
  </g>
  <g>
    <rect x="380" y="84" width="122" height="430" rx="56" fill="#0E1211"/>
    <rect x="394" y="98" width="94" height="402" rx="44" fill="#171F1C"/>
    <g stroke="#223129" stroke-width="22">
      <path d="M394 126L488 216"/>
      <path d="M394 190L488 280"/>
      <path d="M394 254L488 344"/>
      <path d="M394 318L488 408"/>
      <path d="M394 382L488 472"/>
    </g>
    <g stroke="#3DF393" stroke-opacity="0.74" stroke-width="2.5">
      <path d="M392 126L486 216"/>
      <path d="M392 190L486 280"/>
      <path d="M392 254L486 344"/>
      <path d="M392 318L486 408"/>
      <path d="M392 382L486 472"/>
    </g>
    <ellipse cx="441" cy="524" rx="120" ry="42" fill="#101514"/>
    <ellipse cx="441" cy="524" rx="100" ry="28" stroke="#40554A" stroke-width="8"/>
    <circle cx="441" cy="524" r="16" fill="#1A2420"/>
    <circle cx="441" cy="524" r="7" fill="#58F3A2"/>
    <path d="M398 534L485 534L514 692L372 692L398 534Z" fill="#141A18"/>
    <path d="M420 560H470" stroke="#42EE94" stroke-width="3" stroke-linecap="round"/>
    <circle cx="414" cy="620" r="8" fill="#42EE94"/>
    <circle cx="470" cy="652" r="6" fill="#A7FFC9"/>
  </g>
  <ellipse cx="450" cy="1426" rx="188" ry="74" fill="url(#floor)"/>
  <g filter="url(#glow)" opacity="0.62">
    <path d="M430 566C454 822 462 1116 512 1444" stroke="#46F79C" stroke-width="28" stroke-linecap="round"/>
  </g>
  <path d="M402 560L498 560C480 832 486 1148 534 1442C493 1452 454 1458 422 1458C422 1125 406 834 402 560Z" fill="url(#blade)" stroke="#E6FFF0" stroke-width="2"/>
  <path d="M452 576C454 844 467 1148 500 1436" stroke="url(#spine)" stroke-width="5" stroke-linecap="round"/>
  <path d="M430 618C458 688 470 748 476 808M430 770C460 846 472 920 480 984M434 934C458 1036 476 1122 490 1198M442 1110C462 1202 478 1292 498 1368" stroke="#EDFFF3" stroke-opacity="0.34" stroke-width="2.4"/>
  <path d="M534 1442L512 1490L474 1452" fill="#E6FFF1" fill-opacity="0.98"/>
  <g opacity="0.38" filter="url(#soft)">
    <path d="M300 656C350 716 358 798 334 876" stroke="#C0FFDB" stroke-width="20" stroke-linecap="round"/>
    <path d="M598 1028C648 1084 656 1168 626 1246" stroke="#B9FFD8" stroke-width="20" stroke-linecap="round"/>
  </g>
</svg>
